# xmcd
#
# Track frame offsets: 
#        182
#        20292
#        42790
#        65007
#        85950
#        100795
#        118782
#        142035
#        158677
#        180192
#
# Disc length: 2716 seconds
#
# Revision: 4
# Processed by: cddbd v1.5.2PL0 Copyright (c) Steve Scherf et al.
# Submitted via: ExactAudioCopy v0.99pb3
#
DISCID=790a9a0a
DTITLE=Bleach - Killing Time
DYEAR=1992
DGENRE=Indie
TTITLE0=First
TTITLE1=Headless
TTITLE2=Push
TTITLE3=Paint My Face
TTITLE4=Friends
TTITLE5=Fall
TTITLE6=Trip and Slide
TTITLE7=Shotgun
TTITLE8=Surround
TTITLE9=Tangle
EXTD=
EXTT0=
EXTT1=
EXTT2=
EXTT3=
EXTT4=
EXTT5=
EXTT6=
EXTT7=
EXTT8=
EXTT9=
PLAYORDER=
